<svg version="1.1" id="Layer_1" xmlns="http://www.w3.org/2000/svg" xmlns:xlink="http://www.w3.org/1999/xlink" x="0px" y="0px"
	 width="100%" viewBox="0 0 310 163" enable-background="new 0 0 310 163" xml:space="preserve">
<path fill="#010101" opacity="1.000000" stroke="none" 
	d="
M205.000000,164.000000 
	C136.666672,164.000000 68.833351,164.000000 1.000018,164.000000 
	C1.000012,109.666679 1.000012,55.333363 1.000006,1.000033 
	C104.333305,1.000022 207.666611,1.000022 310.999939,1.000011 
	C310.999939,55.333298 310.999939,109.666595 310.999969,163.999939 
	C275.833344,164.000000 240.666672,164.000000 205.000000,164.000000 
M219.467346,160.757553 
	C223.231857,160.757553 226.996368,160.757553 231.832489,160.757553 
	C211.088654,130.478867 190.881180,100.983055 170.565964,71.329979 
	C189.245102,49.556015 207.731277,28.006994 226.843506,5.728181 
	C224.133667,5.728181 222.311905,5.958585 220.569382,5.684765 
	C215.444702,4.879468 211.979156,6.823027 208.751312,10.903782 
	C202.148239,19.251608 194.992905,27.163200 188.049011,35.240685 
	C180.278534,44.279697 172.490341,53.303493 164.577209,62.487858 
	C163.710205,61.283936 163.114243,60.490555 162.553650,59.672913 
	C150.997528,42.818130 139.470596,25.943197 127.845612,9.136077 
	C126.898659,7.766986 125.303009,5.902806 123.982224,5.881045 
	C109.715111,5.645994 95.442665,5.734371 80.418579,5.734371 
	C100.351593,34.826492 119.833122,63.259686 139.418823,91.844902 
	C119.795357,114.723206 100.377129,137.362244 80.310219,160.757553 
	C83.053497,160.757553 84.692451,160.541977 86.254829,160.796463 
	C91.774445,161.695557 95.592247,159.630234 98.825638,155.068893 
	C102.180595,150.336029 106.286713,146.133957 110.083984,141.716644 
	C121.791519,128.097488 133.508438,114.486382 145.372360,100.697075 
	C146.048492,101.605156 146.549866,102.232506 147.002563,102.893204 
	C159.396179,120.981667 171.831680,139.041824 184.122009,157.200211 
	C185.891754,159.814926 187.737106,160.937103 190.996765,160.846405 
	C200.151123,160.591660 209.317215,160.757538 219.467346,160.757553 
z"/>
<path fill="#F9F9F9" opacity="1.000000" stroke="none" 
	d="
M218.973007,160.757538 
	C209.317215,160.757538 200.151123,160.591660 190.996765,160.846405 
	C187.737106,160.937103 185.891754,159.814926 184.122009,157.200211 
	C171.831680,139.041824 159.396179,120.981667 147.002563,102.893204 
	C146.549866,102.232506 146.048492,101.605156 145.372360,100.697075 
	C133.508438,114.486382 121.791519,128.097488 110.083984,141.716644 
	C106.286713,146.133957 102.180595,150.336029 98.825638,155.068893 
	C95.592247,159.630234 91.774445,161.695557 86.254829,160.796463 
	C84.692451,160.541977 83.053497,160.757553 80.310219,160.757553 
	C100.377129,137.362244 119.795357,114.723206 139.418823,91.844902 
	C119.833122,63.259686 100.351593,34.826492 80.418579,5.734371 
	C95.442665,5.734371 109.715111,5.645994 123.982224,5.881045 
	C125.303009,5.902806 126.898659,7.766986 127.845612,9.136077 
	C139.470596,25.943197 150.997528,42.818130 162.553650,59.672913 
	C163.114243,60.490555 163.710205,61.283936 164.577209,62.487858 
	C172.490341,53.303493 180.278534,44.279697 188.049011,35.240685 
	C194.992905,27.163200 202.148239,19.251608 208.751312,10.903782 
	C211.979156,6.823027 215.444702,4.879468 220.569382,5.684765 
	C222.311905,5.958585 224.133667,5.728181 226.843506,5.728181 
	C207.731277,28.006994 189.245102,49.556015 170.565964,71.329979 
	C190.881180,100.983055 211.088654,130.478867 231.832489,160.757553 
	C226.996368,160.757553 223.231857,160.757553 218.973007,160.757538 
M156.985306,99.485847 
	C168.222931,115.547150 179.434921,131.626556 190.744415,147.637085 
	C191.700531,148.990646 193.258224,150.759323 194.623566,150.838837 
	C200.636368,151.188934 206.681122,150.989990 213.343201,150.989990 
	C205.324875,139.507324 197.823837,128.776062 190.333679,118.037209 
	C167.340668,85.071487 144.370895,52.089478 121.296501,19.180832 
	C120.301666,17.761995 118.409683,16.191843 116.846039,16.091766 
	C111.093224,15.723570 105.302635,15.945643 98.805580,15.945643 
	C118.336533,43.949524 137.484879,71.404831 156.985306,99.485847 
z"/>
<path fill="#030303" opacity="1.000000" stroke="none" 
	d="
M156.809265,99.172989 
	C137.484879,71.404831 118.336533,43.949524 98.805580,15.945643 
	C105.302635,15.945643 111.093224,15.723570 116.846039,16.091766 
	C118.409683,16.191843 120.301666,17.761995 121.296501,19.180832 
	C144.370895,52.089478 167.340668,85.071487 190.333679,118.037209 
	C197.823837,128.776062 205.324875,139.507324 213.343201,150.989990 
	C206.681122,150.989990 200.636368,151.188934 194.623566,150.838837 
	C193.258224,150.759323 191.700531,148.990646 190.744415,147.637085 
	C179.434921,131.626556 168.222931,115.547150 156.809265,99.172989 
z"/>
</svg>