<svg version="1.1" id="Layer_1" xmlns="http://www.w3.org/2000/svg" xmlns:xlink="http://www.w3.org/1999/xlink" x="0px" y="0px"
	 width="100%" viewBox="0 0 512 512" enable-background="new 0 0 512 512" xml:space="preserve">
<path fill="#000000" opacity="1.000000" stroke="none" 
	d="
M513.000000,62.000000 
	C513.000000,212.288696 513.000000,362.577393 513.000000,512.933044 
	C342.428650,512.933044 171.857285,512.933044 1.000000,512.933044 
	C1.000000,353.642700 1.000000,194.285233 1.251469,34.628559 
	C2.268419,34.576309 3.197809,35.234688 3.773526,35.005325 
	C8.505728,33.120014 13.134846,33.085514 17.821390,35.155781 
	C19.086727,35.714741 20.609217,35.570240 21.587349,34.557755 
	C26.838036,29.122652 33.895103,26.034409 39.303654,20.835081 
	C42.990788,17.290573 43.355549,4.889012 40.000000,1.000000 
	C160.357407,1.000000 280.714813,1.000000 401.284210,1.280862 
	C398.225311,6.308729 401.371643,11.251270 401.088593,16.094948 
	C400.921356,18.957043 402.364410,21.233994 404.710724,22.828526 
	C410.354584,26.664127 415.988098,30.637167 422.793243,32.108829 
	C437.917603,35.379597 453.192596,38.454098 468.628815,38.708385 
	C479.411255,38.886005 486.819977,42.362667 491.511902,51.967808 
	C492.884705,54.778225 495.133057,56.761959 498.595581,56.608498 
	C504.166382,56.361591 508.969147,58.143955 513.000000,62.000000 
M339.617279,128.837494 
	C315.718445,156.002014 291.819611,183.166534 267.645935,210.643417 
	C266.051208,208.720016 265.061890,207.615967 264.170074,206.438080 
	C245.467453,181.736160 226.729843,157.060425 208.136322,132.276596 
	C205.613052,128.913269 202.899460,127.276993 198.561279,127.302979 
	C173.237427,127.454651 147.912079,127.352478 122.587242,127.357483 
	C120.968750,127.357803 119.060005,126.874008 118.015419,128.590897 
	C116.788086,130.608170 118.444542,132.102402 119.473640,133.485901 
	C124.245132,139.900650 129.126404,146.233948 133.984329,152.584167 
	C162.526932,189.894867 191.059769,227.213058 219.647354,264.489258 
	C221.876602,267.396057 223.065750,269.635254 220.020447,273.079742 
	C193.443695,303.140411 167.034149,333.348999 140.596451,363.532471 
	C134.291794,370.730408 128.067810,377.998993 121.706482,385.350983 
	C123.488358,386.640839 124.830925,386.612000 126.152641,386.612488 
	C137.315567,386.616882 148.479294,386.536499 159.640915,386.656067 
	C162.711380,386.688995 164.465195,385.091461 166.295502,382.994202 
	C190.275131,355.516785 214.307129,328.085052 238.333832,300.648743 
	C239.733948,299.049927 240.889587,297.135773 243.247269,296.507874 
	C246.017212,298.238220 247.580109,301.047150 249.473587,303.524933 
	C269.501190,329.732391 289.510925,355.953552 309.480164,382.205505 
	C311.609100,385.004272 313.865479,386.724182 317.745392,386.699524 
	C343.069244,386.538361 368.394653,386.631226 393.719482,386.593994 
	C395.295227,386.591675 397.076172,387.110626 398.478882,385.535797 
	C397.346039,382.358856 395.328888,379.709900 393.336456,377.078278 
	C374.131500,351.711761 354.888123,326.374268 335.669098,301.018311 
	C320.676147,281.237885 305.776215,261.386108 290.649292,241.708786 
	C288.024963,238.295044 287.861481,235.899261 290.950806,232.819717 
	C294.363312,229.417999 297.325012,225.567352 300.531799,221.955490 
	C325.300812,194.057632 349.226227,165.415268 374.623383,138.069229 
	C377.471832,135.002182 380.444366,131.868973 382.559662,127.459961 
	C368.790680,127.459961 355.652832,127.444817 342.515228,127.498604 
	C341.748230,127.501740 340.983551,128.062683 339.617279,128.837494 
M387.460846,154.170822 
	C390.900482,155.473145 394.511444,155.984055 398.122589,156.514740 
	C400.262512,156.829224 402.156403,156.438705 403.382812,154.554367 
	C406.107361,150.368118 407.996674,146.039993 405.057983,141.114822 
	C403.505585,138.513062 402.929169,135.573715 402.144745,132.690155 
	C400.913940,128.165665 397.870178,126.620964 393.428894,128.010101 
	C390.775482,128.840012 388.639801,130.444473 387.299896,132.809494 
	C385.650879,135.720001 383.499725,137.526520 380.148987,138.389359 
	C376.249725,139.393494 375.401733,142.215424 377.266205,145.733337 
	C379.350952,149.666779 382.126984,152.860031 387.460846,154.170822 
z"/>
<path fill="#000000" opacity="1.000000" stroke="none" 
	d="
M169.523529,158.458786 
	C168.186096,156.378052 166.346710,155.017395 165.799774,152.155823 
	C170.713821,151.045242 175.703186,152.272964 180.467636,151.526245 
	C188.966156,150.194275 193.964462,153.975647 198.962250,160.640137 
	C247.618927,225.523209 296.622070,290.146423 345.508423,354.857361 
	C346.687469,356.418060 348.187744,357.844269 348.464447,360.597717 
	C344.008484,361.939178 339.335663,360.674774 334.885468,361.347046 
	C327.364441,362.483154 322.837891,359.195557 318.340546,353.276703 
	C268.972870,288.304749 219.316666,223.552002 169.523529,158.458786 
z"/>
</svg>